<svg version="1.1" xmlns="http://www.w3.org/2000/svg" xmlns:xlink="http://www.w3.org/1999/xlink" x="0px" y="0px"
	 viewBox="0 0 750 500" style="enable-background:new 0 0 750 500;" xml:space="preserve">
<g id="BACKGROUND_2">
	<g>
		<rect x="-0.125" style="fill:#FFFFFF;" width="750" height="500"/>
		<g>
			<defs>
				<rect id="SVGID_1_" x="0.125" width="750" height="500"/>
			</defs>
			<clipPath id="SVGID_00000116200421904703005890000014689847807445925295_">
				<use xlink:href="#SVGID_1_"  style="overflow:visible;"/>
			</clipPath>
			<g style="clip-path:url(#SVGID_00000116200421904703005890000014689847807445925295_);">
				
					<linearGradient id="SVGID_00000104684667911470567570000001455714870282990479_" gradientUnits="userSpaceOnUse" x1="129.3377" y1="275.9781" x2="511.9117" y2="275.9781">
					<stop  offset="0" style="stop-color:#BF0091"/>
					<stop  offset="1" style="stop-color:#EBB12A"/>
				</linearGradient>
				<path style="fill:url(#SVGID_00000104684667911470567570000001455714870282990479_);" d="M130.337,387.239
					c-0.448,0-0.855-0.303-0.969-0.757c-0.134-0.536,0.191-1.079,0.727-1.213l191.672-47.985l116.32-52.195l-22.522-119.186
					c-0.058-0.304,0.028-0.617,0.233-0.849c0.204-0.231,0.504-0.354,0.815-0.335l94.363,6.211c0.352,0.023,0.665,0.229,0.825,0.544
					c0.16,0.314,0.144,0.689-0.045,0.987l-71.695,113.75c-0.008,0.013-0.018,0.027-0.027,0.041v0.001
					c-0.001,0.002-0.001,0.002-0.004,0.005v0.001c-0.109,0.153-0.255,0.267-0.418,0.337l-117.107,52.548
					c-0.054,0.024-0.109,0.044-0.166,0.058l-191.759,48.007C130.499,387.229,130.418,387.239,130.337,387.239z M417.771,166.8
					l21.956,116.192l69.443-110.177L417.771,166.8z"/>
				
					<linearGradient id="SVGID_00000159457630517025639980000001926293342691419031_" gradientUnits="userSpaceOnUse" x1="-8.9598" y1="352.0946" x2="316.3161" y2="352.0946">
					<stop  offset="0" style="stop-color:#BF0091"/>
					<stop  offset="1" style="stop-color:#EBB12A"/>
				</linearGradient>
				<path style="fill:url(#SVGID_00000159457630517025639980000001926293342691419031_);" d="M182.494,441.794
					c-0.075,0-0.15-0.009-0.226-0.025L-8.163,397.672c-0.108-0.022-0.209-0.063-0.302-0.116c-0.001-0.002-0.003,0-0.003-0.003
					c-0.064-0.038-0.123-0.083-0.177-0.133c0-0.002-0.002-0.002-0.003-0.004c-0.001,0-0.001-0.001-0.002-0.002c0,0,0,0-0.001,0
					c-0.151-0.146-0.257-0.338-0.293-0.556c-0.006-0.036-0.01-0.072-0.012-0.108c0,0,0-0.002,0-0.003v-0.001
					c-0.001-0.023-0.001-0.044-0.001-0.065V305.1c0-0.358,0.192-0.689,0.503-0.868c0.313-0.177,0.694-0.175,1.003,0.006
					l137.759,80.822l184.457-122.498c0.407-0.269,0.947-0.209,1.28,0.146c0.335,0.354,0.365,0.897,0.074,1.286L183.295,441.394
					C183.103,441.649,182.805,441.794,182.494,441.794z M-1.353,397.196l183.438,42.478l128.959-172.24L130.91,387.059
					c-0.151,0.105-0.329,0.167-0.511,0.178L-1.353,397.196z M-6.96,306.846v88.769l134.033-10.132L-6.96,306.846z"/>
				
					<linearGradient id="SVGID_00000168805344368776226090000017275621469472120727_" gradientUnits="userSpaceOnUse" x1="-8.9598" y1="249.9609" x2="758.7096" y2="249.9609">
					<stop  offset="0" style="stop-color:#BF0091"/>
					<stop  offset="1" style="stop-color:#EBB12A"/>
				</linearGradient>
				<path style="fill:url(#SVGID_00000168805344368776226090000017275621469472120727_);" d="M-7.96,512.471
					c-0.137,0-0.275-0.028-0.405-0.086c-0.362-0.16-0.595-0.519-0.595-0.914v-59.374c0-0.529,0.413-0.967,0.941-0.998l69.816-4.143
					l67.87-61.458c0.401-0.363,1.02-0.342,1.394,0.05l50.955,53.3l54.375-188.246c0.099-0.343,0.373-0.607,0.719-0.693
					c0.345-0.084,0.712,0.019,0.96,0.274l84.08,86.67l188.101-165.674c0.002-0.002,0.003-0.002,0.004-0.004
					c0.002-0.001,0.004-0.003,0.006-0.005l0.001-0.001c0.047-0.04,0.096-0.074,0.147-0.105l40.915-24.43l19.733-101.048
					c0.071-0.363,0.337-0.658,0.691-0.766c0.352-0.109,0.738-0.01,0.999,0.252l55.258,55.599L757.051-12.302
					c0.294-0.259,0.715-0.32,1.071-0.158c0.357,0.162,0.587,0.518,0.587,0.911v57.308c0,0.013,0,0.025,0,0.038v81.529
					c0,0.299-0.134,0.582-0.364,0.771c-0.23,0.19-0.533,0.269-0.827,0.21l-128.824-25.103l-27.608,108.764
					c-0.073,0.286-0.269,0.525-0.533,0.653c-0.266,0.129-0.574,0.133-0.844,0.014l-27.825-12.412l-43.667,74.91
					c-0.022,0.038-0.046,0.075-0.072,0.11c-0.1,0.133-0.227,0.234-0.369,0.302c-0.002,0.002-0.004,0.002-0.004,0.002
					c-0.102,0.049-0.214,0.08-0.331,0.091c0,0-0.003,0-0.004,0.001c-0.148,0.014-0.291-0.005-0.433-0.056
					c0,0-0.001-0.001-0.002-0.001c0,0-0.001,0-0.002-0.001c-0.078-0.028-0.151-0.066-0.219-0.112l0,0
					c-0.001-0.001-0.002-0.002-0.003-0.002c-0.138-0.095-0.245-0.218-0.318-0.357c-0.046-0.087-0.079-0.182-0.098-0.281
					c-0.002-0.012-0.004-0.022-0.006-0.033l-16.146-100.917L322.757,338.982c-0.399,0.354-1.008,0.331-1.379-0.054l-83.544-86.116
					l-54.374,188.239c-0.028,0.106-0.074,0.206-0.133,0.296c0,0-0.002,0.004-0.003,0.005c-0.045,0.066-0.098,0.128-0.158,0.183
					c-0.002,0-0.002,0.002-0.005,0.004c-0.146,0.132-0.333,0.222-0.541,0.248h-0.001c-0.001,0-0.003,0-0.004,0
					c-0.024,0.003-0.048,0.006-0.073,0.007l-119.926,7.117l-69.906,63.302C-7.476,512.382-7.717,512.471-7.96,512.471z
					 M-6.96,453.04v56.177L59.429,449.1L-6.96,453.04z M130.288,387.633l-65.302,59.133l115.293-6.842L130.288,387.633z
					 M545.219,188.328l-15.76,80.701l40.587-69.626L545.219,188.328z M512.191,173.594l15.251,95.33l15.903-81.433L512.191,173.594z
					 M572.896,198.485l26.543,11.84l25.798-101.63L572.896,198.485z M545.613,186.313l25.446,11.352l54.082-92.776l-72.025,43.005
					L545.613,186.313z M513.078,171.799l30.66,13.678l7.071-36.206L513.078,171.799z M572.659,47.82l-19.028,97.437l72.716-43.417
					L572.659,47.82z M631.313,101.677l125.396,24.435V47.301L631.313,101.677z M756.71-9.345L633.432,98.579L756.71,45.122V-9.345z"
					/>
				
					<linearGradient id="SVGID_00000008863452450036644370000011597794293160652203_" gradientUnits="userSpaceOnUse" x1="571.0382" y1="86.5519" x2="758.7101" y2="86.5519">
					<stop  offset="0" style="stop-color:#BF0091"/>
					<stop  offset="1" style="stop-color:#EBB12A"/>
				</linearGradient>
				<path style="fill:url(#SVGID_00000008863452450036644370000011597794293160652203_);" d="M757.709,128.326
					c-0.134,0-0.271-0.027-0.401-0.084L571.636,46.694c-0.506-0.223-0.735-0.813-0.514-1.318c0.223-0.506,0.81-0.733,1.318-0.514
					l185.671,81.548c0.506,0.223,0.735,0.813,0.514,1.318C758.461,128.103,758.093,128.326,757.709,128.326z"/>
				
					<linearGradient id="SVGID_00000021831362991429573670000001892252523428653975_" gradientUnits="userSpaceOnUse" x1="-8.9598" y1="281.2051" x2="545.4791" y2="281.2051">
					<stop  offset="0" style="stop-color:#BF0091"/>
					<stop  offset="1" style="stop-color:#EBB12A"/>
				</linearGradient>
				<path style="fill:url(#SVGID_00000021831362991429573670000001892252523428653975_);" d="M-7.96,397.693
					c-0.17,0-0.341-0.044-0.495-0.131c-0.313-0.178-0.505-0.51-0.505-0.869V250.878c0-0.349,0.181-0.672,0.478-0.854
					c0.298-0.182,0.667-0.196,0.978-0.037l131.661,67.369l196.834,19.759l-6.671-73.631c-0.028-0.311,0.091-0.616,0.32-0.827
					c0.23-0.21,0.545-0.305,0.853-0.247l123.406,22.194l49.707-46.644l-72.759-71.531c-0.394-0.387-0.399-1.021-0.012-1.414
					c0.386-0.393,1.018-0.399,1.414-0.012l72.816,71.587l53.729-50.418c0.318-0.297,0.79-0.354,1.168-0.145
					c0.38,0.21,0.581,0.641,0.498,1.066l-17.135,87.74c-0.07,0.361-0.334,0.655-0.685,0.764c-0.354,0.11-0.736,0.016-0.997-0.242
					l-36.609-35.991l-50.133,47.043c-0.231,0.216-0.55,0.311-0.861,0.255L316.43,264.612l6.662,73.53
					c0.026,0.297-0.08,0.591-0.292,0.801c-0.212,0.209-0.51,0.31-0.804,0.284l-197.9-19.865L-7.449,397.552
					C-7.606,397.646-7.783,397.693-7.96,397.693z M-6.96,252.513v142.422l128.762-76.536L-6.96,252.513z M491.493,237.995
					l35.227,34.632l16.185-82.874L491.493,237.995z"/>
				
					<linearGradient id="SVGID_00000109721191269030806680000005315570739756580763_" gradientUnits="userSpaceOnUse" x1="127.146" y1="326.2638" x2="440.2163" y2="326.2638">
					<stop  offset="0" style="stop-color:#BF0091"/>
					<stop  offset="1" style="stop-color:#EBB12A"/>
				</linearGradient>
				<path style="fill:url(#SVGID_00000109721191269030806680000005315570739756580763_);" d="M375.726,402.649
					c-0.19,0-0.374-0.055-0.531-0.152l-112.046-69.278c-0.201-0.125-0.353-0.317-0.425-0.543l-25.756-79.73L128.924,386.688
					c-0.347,0.431-0.976,0.498-1.406,0.15c-0.43-0.348-0.497-0.978-0.149-1.406l109.206-135.182c0.231-0.286,0.6-0.421,0.961-0.355
					c0.361,0.067,0.656,0.326,0.768,0.676l26.211,81.14l109.013,67.403L314.4,263.795c-0.222-0.506,0.01-1.096,0.516-1.316
					c0.509-0.225,1.096,0.011,1.316,0.516l58.958,134.93l15.323-120.953c0.034-0.271,0.18-0.518,0.4-0.68
					c0.222-0.162,0.5-0.228,0.769-0.179l47.711,8.581c0.316,0.057,0.587,0.263,0.726,0.553c0.139,0.29,0.129,0.63-0.025,0.912
					l-63.484,115.96c-0.143,0.27-0.407,0.466-0.722,0.517c0,0-0.002,0-0.004,0c-0.002,0-0.003,0.001-0.005,0.001
					c-0.003,0.001-0.006,0.001-0.01,0.002l0,0c0,0-0.002,0-0.004,0c-0.001,0-0.001,0-0.001,0c-0.001,0-0.003,0.001-0.004,0.001l0,0
					c-0.003,0-0.006,0.001-0.009,0.001l0,0c-0.004,0-0.007,0.001-0.012,0.001c-0.001,0-0.001,0.001-0.001,0.001
					C375.8,402.647,375.763,402.649,375.726,402.649z M392.365,278.268L377.38,396.544l60.292-110.128L392.365,278.268z"/>
				
					<linearGradient id="SVGID_00000108279612477076098500000009136900898314737796_" gradientUnits="userSpaceOnUse" x1="-8.96" y1="353.3739" x2="376.7265" y2="353.3739">
					<stop  offset="0" style="stop-color:#BF0091"/>
					<stop  offset="1" style="stop-color:#EBB12A"/>
				</linearGradient>
				<path style="fill:url(#SVGID_00000108279612477076098500000009136900898314737796_);" d="M375.727,402.649
					c-0.064,0-0.128-0.006-0.193-0.018l-172.18-33.738L-8.245,306.059c-0.529-0.157-0.831-0.714-0.674-1.244
					c0.157-0.528,0.711-0.833,1.243-0.674l211.506,62.811l172.087,33.716c0.542,0.106,0.896,0.632,0.789,1.174
					C376.614,402.318,376.196,402.649,375.727,402.649z"/>
			</g>
			
				<linearGradient id="SVGID_00000158715631872748232230000006730776404327456644_" gradientUnits="userSpaceOnUse" x1="63.8299" y1="470.2239" x2="174.0863" y2="470.2239">
				<stop  offset="0" style="stop-color:#6882F8"/>
				<stop  offset="1" style="stop-color:#4E54FA"/>
			</linearGradient>
			
				<polygon style="clip-path:url(#SVGID_00000116200421904703005890000014689847807445925295_);fill:url(#SVGID_00000158715631872748232230000006730776404327456644_);" points="
				63.83,486.277 174.086,410.272 125.913,530.176 			"/>
			
				<linearGradient id="SVGID_00000171694447851328842720000010269638682657836717_" gradientUnits="userSpaceOnUse" x1="510.9115" y1="150.4935" x2="627.9581" y2="150.4935">
				<stop  offset="0" style="stop-color:#EAB33F"/>
				<stop  offset="1" style="stop-color:#E48C28"/>
			</linearGradient>
			
				<polygon style="clip-path:url(#SVGID_00000116200421904703005890000014689847807445925295_);fill:url(#SVGID_00000171694447851328842720000010269638682657836717_);" points="
				510.911,171.928 627.958,102.043 571.472,198.944 			"/>
			
				<linearGradient id="SVGID_00000181081714000514067340000007285704292834254522_" gradientUnits="userSpaceOnUse" x1="-84.68" y1="14807.8672" x2="-42.741" y2="14807.8672" gradientTransform="matrix(-0.275 -0.9614 0.9614 -0.275 -13981.9326 4431.6973)">
				<stop  offset="0" style="stop-color:#EAB33F"/>
				<stop  offset="1" style="stop-color:#E48C28"/>
			</linearGradient>
			
				<polygon style="clip-path:url(#SVGID_00000116200421904703005890000014689847807445925295_);fill:url(#SVGID_00000181081714000514067340000007285704292834254522_);" points="
				278.427,440.72 242.817,407.286 294.892,413.189 			"/>
			
				<linearGradient id="SVGID_00000163072103592332571070000010242024835931843233_" gradientUnits="userSpaceOnUse" x1="-13652.335" y1="4622.0303" x2="-13621.207" y2="4622.0303" gradientTransform="matrix(-0.3664 0.9305 -0.9305 -0.3664 -534.472 14638.0146)">
				<stop  offset="0" style="stop-color:#6882F8"/>
				<stop  offset="1" style="stop-color:#4E54FA"/>
			</linearGradient>
			
				<polygon style="clip-path:url(#SVGID_00000116200421904703005890000014689847807445925295_);fill:url(#SVGID_00000163072103592332571070000010242024835931843233_);" points="
				158.092,237.52 175.107,277.675 137.674,257.938 			"/>
			
				<linearGradient id="SVGID_00000152967359337600774040000013385856323093944510_" gradientUnits="userSpaceOnUse" x1="627.9581" y1="37.7986" x2="693.7206" y2="37.7986">
				<stop  offset="0" style="stop-color:#6882F8"/>
				<stop  offset="1" style="stop-color:#4E54FA"/>
			</linearGradient>
			
				<polygon style="clip-path:url(#SVGID_00000116200421904703005890000014689847807445925295_);fill:url(#SVGID_00000152967359337600774040000013385856323093944510_);" points="
				627.958,-26.446 627.958,102.043 693.721,-5.808 			"/>
			
				<linearGradient id="SVGID_00000176725137928675415860000017528136090139496067_" gradientUnits="userSpaceOnUse" x1="-12609.1865" y1="13077.6748" x2="-12483.6895" y2="13077.6748" gradientTransform="matrix(-0.9745 0.2244 -0.2244 -0.9745 -9241.1436 15839.9551)">
				<stop  offset="0" style="stop-color:#EAB33F"/>
				<stop  offset="1" style="stop-color:#E48C28"/>
			</linearGradient>
			
				<polygon style="clip-path:url(#SVGID_00000116200421904703005890000014689847807445925295_);fill:url(#SVGID_00000176725137928675415860000017528136090139496067_);" points="
				123.869,318.333 43.212,227.238 -7.96,305.1 			"/>
			
				<linearGradient id="SVGID_00000103256650594988856950000009973604456124062367_" gradientUnits="userSpaceOnUse" x1="653.7259" y1="158.0298" x2="757.7098" y2="158.0298">
				<stop  offset="0" style="stop-color:#A0567F"/>
				<stop  offset="1" style="stop-color:#DC4D83"/>
			</linearGradient>
			
				<polygon style="clip-path:url(#SVGID_00000116200421904703005890000014689847807445925295_);fill:url(#SVGID_00000103256650594988856950000009973604456124062367_);" points="
				653.726,150.494 733.312,188.734 757.71,127.326 			"/>
			
				<linearGradient id="SVGID_00000058588421415980702280000004942264453651735228_" gradientUnits="userSpaceOnUse" x1="203.5467" y1="310.7675" x2="263.6756" y2="310.7675">
				<stop  offset="0" style="stop-color:#A0567F"/>
				<stop  offset="1" style="stop-color:#DC4D83"/>
			</linearGradient>
			
				<polygon style="clip-path:url(#SVGID_00000116200421904703005890000014689847807445925295_);fill:url(#SVGID_00000058588421415980702280000004942264453651735228_);" points="
				203.547,367.911 236.559,253.624 263.676,332.367 			"/>
			
				<linearGradient id="SVGID_00000178885284606277348960000005320968604936859052_" gradientUnits="userSpaceOnUse" x1="314.0391" y1="336.6313" x2="330.1923" y2="336.6313">
				<stop  offset="0" style="stop-color:#EAB33F"/>
				<stop  offset="1" style="stop-color:#E48C28"/>
			</linearGradient>
			
				<circle style="clip-path:url(#SVGID_00000116200421904703005890000014689847807445925295_);fill:url(#SVGID_00000178885284606277348960000005320968604936859052_);" cx="322.116" cy="336.631" r="8.077"/>
			
				<linearGradient id="SVGID_00000097493374262629976090000003492654980016648344_" gradientUnits="userSpaceOnUse" x1="173.6664" y1="440.7495" x2="189.8196" y2="440.7495">
				<stop  offset="0" style="stop-color:#EAB33F"/>
				<stop  offset="1" style="stop-color:#E48C28"/>
			</linearGradient>
			
				<circle style="clip-path:url(#SVGID_00000116200421904703005890000014689847807445925295_);fill:url(#SVGID_00000097493374262629976090000003492654980016648344_);" cx="181.743" cy="440.749" r="8.077"/>
			
				<linearGradient id="SVGID_00000150073439237688580620000015326815398604437122_" gradientUnits="userSpaceOnUse" x1="-16.0362" y1="452.097" x2="0.1169" y2="452.097">
				<stop  offset="0" style="stop-color:#A0567F"/>
				<stop  offset="1" style="stop-color:#DC4D83"/>
			</linearGradient>
			
				<circle style="clip-path:url(#SVGID_00000116200421904703005890000014689847807445925295_);fill:url(#SVGID_00000150073439237688580620000015326815398604437122_);" cx="-7.96" cy="452.097" r="8.077"/>
			
				<linearGradient id="SVGID_00000036935408837021834610000007410618277029586600_" gradientUnits="userSpaceOnUse" x1="563.9621" y1="45.778" x2="580.1152" y2="45.778">
				<stop  offset="0" style="stop-color:#A0567F"/>
				<stop  offset="1" style="stop-color:#DC4D83"/>
			</linearGradient>
			
				<circle style="clip-path:url(#SVGID_00000116200421904703005890000014689847807445925295_);fill:url(#SVGID_00000036935408837021834610000007410618277029586600_);" cx="572.039" cy="45.778" r="8.077"/>
			
				<linearGradient id="SVGID_00000129901423745282545360000004262636109474995624_" gradientUnits="userSpaceOnUse" x1="431.1403" y1="285.6778" x2="447.2934" y2="285.6778">
				<stop  offset="0" style="stop-color:#A0567F"/>
				<stop  offset="1" style="stop-color:#DC4D83"/>
			</linearGradient>
			
				<circle style="clip-path:url(#SVGID_00000116200421904703005890000014689847807445925295_);fill:url(#SVGID_00000129901423745282545360000004262636109474995624_);" cx="439.217" cy="285.678" r="8.077"/>
			
				<linearGradient id="SVGID_00000098937387204927673070000003311756347031994004_" gradientUnits="userSpaceOnUse" x1="749.6332" y1="45.778" x2="765.7863" y2="45.778">
				<stop  offset="0" style="stop-color:#A0567F"/>
				<stop  offset="1" style="stop-color:#DC4D83"/>
			</linearGradient>
			
				<circle style="clip-path:url(#SVGID_00000116200421904703005890000014689847807445925295_);fill:url(#SVGID_00000098937387204927673070000003311756347031994004_);" cx="757.71" cy="45.778" r="8.077"/>
			
				<linearGradient id="SVGID_00000170279147352198656270000007469513413109363630_" gradientUnits="userSpaceOnUse" x1="120.0695" y1="386.0596" x2="136.2227" y2="386.0596">
				<stop  offset="0" style="stop-color:#A0567F"/>
				<stop  offset="1" style="stop-color:#DC4D83"/>
			</linearGradient>
			
				<circle style="clip-path:url(#SVGID_00000116200421904703005890000014689847807445925295_);fill:url(#SVGID_00000170279147352198656270000007469513413109363630_);" cx="128.146" cy="386.06" r="8.077"/>
			
				<linearGradient id="SVGID_00000083082165952198922670000006686706125246265015_" gradientUnits="userSpaceOnUse" x1="60.8578" y1="349.818" x2="77.0109" y2="349.818">
				<stop  offset="0" style="stop-color:#EAB33F"/>
				<stop  offset="1" style="stop-color:#E48C28"/>
			</linearGradient>
			
				<circle style="clip-path:url(#SVGID_00000116200421904703005890000014689847807445925295_);fill:url(#SVGID_00000083082165952198922670000006686706125246265015_);" cx="68.934" cy="349.818" r="8.077"/>
			
				<linearGradient id="SVGID_00000019666106480952371390000003217737710626638992_" gradientUnits="userSpaceOnUse" x1="519.2682" y1="274.6429" x2="535.4214" y2="274.6429">
				<stop  offset="0" style="stop-color:#EAB33F"/>
				<stop  offset="1" style="stop-color:#E48C28"/>
			</linearGradient>
			
				<circle style="clip-path:url(#SVGID_00000116200421904703005890000014689847807445925295_);fill:url(#SVGID_00000019666106480952371390000003217737710626638992_);" cx="527.345" cy="274.643" r="8.077"/>
			
				<linearGradient id="SVGID_00000018230768380166663140000018358785552560862650_" gradientUnits="userSpaceOnUse" x1="634.933" y1="225.0726" x2="669.0385" y2="225.0726">
				<stop  offset="0" style="stop-color:#6882F8"/>
				<stop  offset="1" style="stop-color:#4E54FA"/>
			</linearGradient>
			
				<polygon style="clip-path:url(#SVGID_00000116200421904703005890000014689847807445925295_);fill:url(#SVGID_00000018230768380166663140000018358785552560862650_);" points="
				634.933,188.734 634.933,261.411 669.039,249.961 			"/>
			
				<linearGradient id="SVGID_00000078737202922446572490000007265134424403526795_" gradientUnits="userSpaceOnUse" x1="713.4451" y1="62.7857" x2="739.4766" y2="62.7857">
				<stop  offset="0" style="stop-color:#EAB33F"/>
				<stop  offset="1" style="stop-color:#E48C28"/>
			</linearGradient>
			
				<polygon style="clip-path:url(#SVGID_00000116200421904703005890000014689847807445925295_);fill:url(#SVGID_00000078737202922446572490000007265134424403526795_);" points="
				713.445,41.795 713.445,83.776 739.477,74.597 			"/>
			
				<linearGradient id="SVGID_00000106849676540764765070000016916005437920626357_" gradientUnits="userSpaceOnUse" x1="-13624.0205" y1="3426.4202" x2="-13577.4678" y2="3426.4202" gradientTransform="matrix(-0.2006 0.9797 -0.9797 -0.2006 648.9217 14417.9805)">
				<stop  offset="0" style="stop-color:#A0567F"/>
				<stop  offset="1" style="stop-color:#DC4D83"/>
			</linearGradient>
			
				<polygon style="clip-path:url(#SVGID_00000116200421904703005890000014689847807445925295_);fill:url(#SVGID_00000106849676540764765070000016916005437920626357_);" points="
				57.396,391.753 -7.704,376.484 -7.704,424.003 			"/>
			
				<linearGradient id="SVGID_00000037685491614241834390000007364184246099918738_" gradientUnits="userSpaceOnUse" x1="502.1309" y1="83.3055" x2="587.9759" y2="83.3055">
				<stop  offset="0" style="stop-color:#A0567F"/>
				<stop  offset="1" style="stop-color:#DC4D83"/>
			</linearGradient>
			
				<polygon style="clip-path:url(#SVGID_00000116200421904703005890000014689847807445925295_);fill:url(#SVGID_00000037685491614241834390000007364184246099918738_);" points="
				520.506,66.941 587.976,99.67 502.131,99.67 			"/>
		</g>
	
	</g>
</g>
<g id="BACKGROUND_1">
	<g>
		<defs>
			<rect id="SVGID_00000030476597079428438060000000770623379211604399_" x="-530.467" width="500" height="500"/>
		</defs>
		<clipPath id="SVGID_00000058566979095423512350000011809049397406427583_">
			<use xlink:href="#SVGID_00000030476597079428438060000000770623379211604399_"  style="overflow:visible;"/>
		</clipPath>
		<g style="clip-path:url(#SVGID_00000058566979095423512350000011809049397406427583_);">
			<rect x="-530.467" style="fill:#FFFFFF;" width="750" height="500"/>
			<g>
				<defs>
					<rect id="SVGID_00000016072285757379720830000001418476187720274822_" x="-530.217" width="750" height="500"/>
				</defs>
				<clipPath id="SVGID_00000165953399897487795120000012425223541760860077_">
					<use xlink:href="#SVGID_00000016072285757379720830000001418476187720274822_"  style="overflow:visible;"/>
				</clipPath>
				<g style="clip-path:url(#SVGID_00000165953399897487795120000012425223541760860077_);">
					
						<linearGradient id="SVGID_00000000215835752748146430000007244278653952667819_" gradientUnits="userSpaceOnUse" x1="-539.3021" y1="249.9609" x2="228.3673" y2="249.9609">
						<stop  offset="0" style="stop-color:#BF0091"/>
						<stop  offset="1" style="stop-color:#EBB12A"/>
					</linearGradient>
					<path style="fill:url(#SVGID_00000000215835752748146430000007244278653952667819_);" d="M-538.303,512.471
						c-0.137,0-0.275-0.028-0.405-0.086c-0.362-0.16-0.595-0.519-0.595-0.914v-59.374c0-0.529,0.413-0.967,0.941-0.998l69.816-4.143
						l67.87-61.458c0.401-0.363,1.02-0.342,1.394,0.05l50.955,53.3l54.376-188.246c0.099-0.343,0.373-0.607,0.719-0.693
						c0.345-0.084,0.712,0.019,0.96,0.274l84.08,86.67l188.101-165.674c0.002-0.002,0.003-0.002,0.004-0.004
						c0.002-0.001,0.004-0.003,0.006-0.005l0.001-0.001c0.047-0.04,0.096-0.074,0.147-0.105l40.915-24.43L40.715,45.586
						c0.071-0.363,0.337-0.658,0.691-0.766c0.352-0.109,0.738-0.01,0.999,0.252l55.258,55.599L226.709-12.302
						c0.294-0.259,0.715-0.32,1.071-0.158c0.357,0.162,0.587,0.518,0.587,0.911v57.308c0,0.013,0,0.025,0,0.038v81.529
						c0,0.299-0.134,0.582-0.364,0.771c-0.23,0.19-0.533,0.269-0.827,0.21L98.352,103.205L70.743,211.968
						c-0.073,0.286-0.268,0.525-0.533,0.653c-0.266,0.129-0.574,0.133-0.844,0.014l-27.825-12.412l-43.667,74.91
						c-0.021,0.038-0.046,0.075-0.072,0.11c-0.1,0.133-0.227,0.234-0.369,0.302c-0.002,0.002-0.004,0.002-0.004,0.002
						c-0.103,0.049-0.214,0.08-0.331,0.091c0,0-0.003,0-0.004,0.001c-0.147,0.014-0.291-0.005-0.433-0.056
						c0,0-0.001-0.001-0.002-0.001c0,0-0.001,0-0.002-0.001c-0.078-0.028-0.151-0.066-0.219-0.112l0,0
						c-0.001-0.001-0.002-0.002-0.003-0.002c-0.138-0.095-0.245-0.218-0.318-0.357c-0.046-0.087-0.079-0.182-0.098-0.281
						c-0.002-0.012-0.004-0.022-0.006-0.033l-16.146-100.917l-187.453,165.104c-0.399,0.354-1.008,0.331-1.379-0.054l-83.544-86.116
						l-54.374,188.239c-0.028,0.106-0.074,0.206-0.133,0.296c0,0-0.002,0.004-0.003,0.005c-0.045,0.066-0.098,0.128-0.158,0.183
						c-0.002,0-0.002,0.002-0.005,0.004c-0.147,0.132-0.333,0.222-0.541,0.248h0c-0.001,0-0.003,0-0.004,0
						c-0.024,0.003-0.048,0.006-0.073,0.007l-119.926,7.117l-69.906,63.302C-537.818,512.382-538.059,512.471-538.303,512.471z
						 M-537.302,453.04v56.177l66.389-60.116L-537.302,453.04z M-400.055,387.633l-65.302,59.133l115.293-6.842L-400.055,387.633z
						 M14.877,188.328l-15.76,80.701l40.587-69.626L14.877,188.328z M-18.151,173.594l15.251,95.33l15.903-81.433L-18.151,173.594z
						 M42.554,198.485l26.543,11.84l25.798-101.63L42.554,198.485z M15.271,186.313l25.446,11.352l54.082-92.776l-72.025,43.005
						L15.271,186.313z M-17.265,171.799l30.66,13.678l7.071-36.206L-17.265,171.799z M42.316,47.82l-19.028,97.437l72.716-43.417
						L42.316,47.82z M100.971,101.677l125.396,24.435V47.301L100.971,101.677z M226.367-9.345L103.09,98.579l123.277-53.457V-9.345z
						"/>
					
						<linearGradient id="SVGID_00000076585041729940605550000007357896082362468029_" gradientUnits="userSpaceOnUse" x1="40.6959" y1="86.5519" x2="228.3678" y2="86.5519">
						<stop  offset="0" style="stop-color:#BF0091"/>
						<stop  offset="1" style="stop-color:#EBB12A"/>
					</linearGradient>
					<path style="fill:url(#SVGID_00000076585041729940605550000007357896082362468029_);" d="M227.366,128.326
						c-0.134,0-0.27-0.027-0.401-0.084L41.294,46.694c-0.506-0.223-0.735-0.813-0.514-1.318c0.223-0.506,0.811-0.733,1.318-0.514
						L227.77,126.41c0.506,0.223,0.735,0.813,0.514,1.318C228.118,128.103,227.751,128.326,227.366,128.326z"/>
					
						<linearGradient id="SVGID_00000176757131036392980890000015525127916255985557_" gradientUnits="userSpaceOnUse" x1="-539.3021" y1="281.2051" x2="15.1368" y2="281.2051">
						<stop  offset="0" style="stop-color:#BF0091"/>
						<stop  offset="1" style="stop-color:#EBB12A"/>
					</linearGradient>
					<path style="fill:url(#SVGID_00000176757131036392980890000015525127916255985557_);" d="M-538.302,397.693
						c-0.17,0-0.341-0.044-0.495-0.131c-0.313-0.178-0.505-0.51-0.505-0.869V250.878c0-0.349,0.181-0.672,0.478-0.854
						c0.298-0.182,0.667-0.196,0.978-0.037l131.661,67.369l196.834,19.759l-6.671-73.631c-0.028-0.311,0.091-0.616,0.32-0.827
						c0.23-0.21,0.545-0.305,0.853-0.247l123.406,22.194l49.707-46.644l-72.759-71.531c-0.394-0.387-0.399-1.021-0.012-1.414
						c0.386-0.393,1.018-0.399,1.414-0.012l72.816,71.587l53.729-50.418c0.318-0.297,0.79-0.354,1.168-0.145
						c0.38,0.21,0.581,0.641,0.498,1.066l-17.135,87.74c-0.07,0.361-0.334,0.655-0.686,0.764c-0.353,0.11-0.736,0.016-0.997-0.242
						l-36.609-35.991l-50.133,47.043c-0.231,0.216-0.55,0.311-0.861,0.255l-122.609-22.051l6.662,73.53
						c0.026,0.297-0.08,0.591-0.292,0.801c-0.212,0.209-0.51,0.31-0.804,0.284l-197.9-19.865l-131.546,78.191
						C-537.949,397.646-538.125,397.693-538.302,397.693z M-537.302,252.513v142.422l128.762-76.536L-537.302,252.513z
						 M-38.849,237.995l35.226,34.632l16.185-82.874L-38.849,237.995z"/>
				</g>
				
					<linearGradient id="SVGID_00000168838044124393539020000016085224676870110878_" gradientUnits="userSpaceOnUse" x1="-19.4308" y1="150.4935" x2="97.6158" y2="150.4935">
					<stop  offset="0" style="stop-color:#EAB33F"/>
					<stop  offset="1" style="stop-color:#E48C28"/>
				</linearGradient>
				
					<polygon style="clip-path:url(#SVGID_00000165953399897487795120000012425223541760860077_);fill:url(#SVGID_00000168838044124393539020000016085224676870110878_);" points="
					-19.431,171.928 97.616,102.043 41.129,198.944 				"/>
				
					<linearGradient id="SVGID_00000025410819007788330960000016071393475237165993_" gradientUnits="userSpaceOnUse" x1="97.6158" y1="37.7986" x2="163.3783" y2="37.7986">
					<stop  offset="0" style="stop-color:#6882F8"/>
					<stop  offset="1" style="stop-color:#4E54FA"/>
				</linearGradient>
				
					<polygon style="clip-path:url(#SVGID_00000165953399897487795120000012425223541760860077_);fill:url(#SVGID_00000025410819007788330960000016071393475237165993_);" points="
					97.616,-26.446 97.616,102.043 163.378,-5.808 				"/>
				
					<linearGradient id="SVGID_00000116935239848303129680000012619551376814900893_" gradientUnits="userSpaceOnUse" x1="123.3836" y1="158.0298" x2="227.3675" y2="158.0298">
					<stop  offset="0" style="stop-color:#A0567F"/>
					<stop  offset="1" style="stop-color:#DC4D83"/>
				</linearGradient>
				
					<polygon style="clip-path:url(#SVGID_00000165953399897487795120000012425223541760860077_);fill:url(#SVGID_00000116935239848303129680000012619551376814900893_);" points="
					123.384,150.494 202.969,188.734 227.367,127.326 				"/>
				
					<linearGradient id="SVGID_00000016754147100753182830000014532242393500568200_" gradientUnits="userSpaceOnUse" x1="33.6198" y1="45.778" x2="49.7729" y2="45.778">
					<stop  offset="0" style="stop-color:#A0567F"/>
					<stop  offset="1" style="stop-color:#DC4D83"/>
				</linearGradient>
				
					<circle style="clip-path:url(#SVGID_00000165953399897487795120000012425223541760860077_);fill:url(#SVGID_00000016754147100753182830000014532242393500568200_);" cx="41.696" cy="45.778" r="8.077"/>
				
					<linearGradient id="SVGID_00000058569062670951169020000010315689694646492811_" gradientUnits="userSpaceOnUse" x1="219.2909" y1="45.778" x2="235.444" y2="45.778">
					<stop  offset="0" style="stop-color:#A0567F"/>
					<stop  offset="1" style="stop-color:#DC4D83"/>
				</linearGradient>
				
					<circle style="clip-path:url(#SVGID_00000165953399897487795120000012425223541760860077_);fill:url(#SVGID_00000058569062670951169020000010315689694646492811_);" cx="227.367" cy="45.778" r="8.077"/>
				
					<linearGradient id="SVGID_00000168109281952631441370000013217543676638287518_" gradientUnits="userSpaceOnUse" x1="-11.0741" y1="274.6429" x2="5.079" y2="274.6429">
					<stop  offset="0" style="stop-color:#EAB33F"/>
					<stop  offset="1" style="stop-color:#E48C28"/>
				</linearGradient>
				
					<circle style="clip-path:url(#SVGID_00000165953399897487795120000012425223541760860077_);fill:url(#SVGID_00000168109281952631441370000013217543676638287518_);" cx="-2.998" cy="274.643" r="8.077"/>
				
					<linearGradient id="SVGID_00000136369529925132493000000014109271454364176297_" gradientUnits="userSpaceOnUse" x1="104.5907" y1="225.0726" x2="138.6962" y2="225.0726">
					<stop  offset="0" style="stop-color:#6882F8"/>
					<stop  offset="1" style="stop-color:#4E54FA"/>
				</linearGradient>
				
					<polygon style="clip-path:url(#SVGID_00000165953399897487795120000012425223541760860077_);fill:url(#SVGID_00000136369529925132493000000014109271454364176297_);" points="
					104.591,188.734 104.591,261.411 138.696,249.961 				"/>
				
					<linearGradient id="SVGID_00000054965747690979459300000018118777708968886958_" gradientUnits="userSpaceOnUse" x1="183.1028" y1="62.7857" x2="209.1342" y2="62.7857">
					<stop  offset="0" style="stop-color:#EAB33F"/>
					<stop  offset="1" style="stop-color:#E48C28"/>
				</linearGradient>
				
					<polygon style="clip-path:url(#SVGID_00000165953399897487795120000012425223541760860077_);fill:url(#SVGID_00000054965747690979459300000018118777708968886958_);" points="
					183.103,41.795 183.103,83.776 209.134,74.597 				"/>
				
					<linearGradient id="SVGID_00000137838682800789259930000014634638064899724209_" gradientUnits="userSpaceOnUse" x1="-28.2114" y1="83.3055" x2="57.6335" y2="83.3055">
					<stop  offset="0" style="stop-color:#A0567F"/>
					<stop  offset="1" style="stop-color:#DC4D83"/>
				</linearGradient>
				
					<polygon style="clip-path:url(#SVGID_00000165953399897487795120000012425223541760860077_);fill:url(#SVGID_00000137838682800789259930000014634638064899724209_);" points="
					-9.836,66.941 57.633,99.67 -28.211,99.67 				"/>
			</g>
		</g>
	</g>
</g>
  </svg>