
<svg version="1.1" xmlns="http://www.w3.org/2000/svg" xmlns:xlink="http://www.w3.org/1999/xlink" x="0px" y="0px"
	 viewBox="0 0 750 500" style="enable-background:new 0 0 750 500;" xml:space="preserve">
<g id="BACKGROUND_2">
	<g>
		<rect x="-0.084" style="fill:#FFFFFF;" width="750" height="500"/>
		<g>
			<rect x="-0.084" style="fill:#FFFFFF;" width="750.25" height="500"/>
			<g>
				<defs>
					<rect id="SVGID_1_" x="-0.166" width="750.166" height="500"/>
				</defs>
				<clipPath id="SVGID_00000041974514543349221290000009782723140228489405_">
					<use xlink:href="#SVGID_1_"  style="overflow:visible;"/>
				</clipPath>
				<g style="clip-path:url(#SVGID_00000041974514543349221290000009782723140228489405_);">
					<polygon style="fill:#03312E;" points="673.842,219.617 610.898,328.635 547.961,219.617 					"/>
					<polygon style="fill:#153D51;" points="595.967,403.883 718.377,191.865 840.783,403.883 					"/>
					<polygon style="fill:#037171;" points="460.094,518.935 642.465,203.068 824.824,518.935 					"/>
					<polygon style="fill:#153D51;" points="403.432,477.348 526.42,264.33 649.4,477.348 					"/>
					<g>
						<polygon style="fill:#03312E;" points="390.313,350.9 415.494,307.287 440.672,350.9 						"/>
						<polygon style="fill:#153D51;" points="672.193,121.383 690.815,89.132 709.434,121.383 						"/>
						<polygon style="fill:#5d84a99;" points="340.424,428.971 323.65,458.023 306.879,428.971 						"/>
						<polygon style="fill:#00bba7;" points="688.9,160.705 672.127,189.757 655.356,160.705 						"/>
						<polygon style="fill:#03312E;" points="295.299,467.637 278.525,496.69 261.754,467.637 						"/>
						<polygon style="fill:#037171;" points="478.98,296.478 462.207,325.531 445.434,296.478 						"/>
						<polygon style="fill:#037171;" points="340.572,405.492 352.348,385.096 364.121,405.492 						"/>
						<polygon style="fill:#03312E;" points="334.336,367.438 322.826,387.371 311.318,367.438 						"/>
						<polygon style="fill:#23BECC;" points="599.166,195.142 610.676,175.208 622.182,195.142 						"/>
						<polygon style="fill:#037171;" points="524.377,217.55 512.869,237.484 501.361,217.55 						"/>
					</g>
					<polygon style="fill:#037171;" points="303.065,562.74 409.426,378.52 515.783,562.74 					"/>
					<polygon style="fill:#23BECC;" points="677.838,234.285 734.994,135.283 792.152,234.285 					"/>
					<polygon style="fill:#03312E;" points="783.984,340.654 661.572,552.674 539.168,340.654 					"/>
					<polygon style="fill:#037171;" points="857.688,399.68 751.326,583.9 644.969,399.68 					"/>
					<polygon style="fill:#23BECC;" points="608.953,409.559 538.414,531.732 467.879,409.559 					"/>
				</g>
				
				<g style="clip-path:url(#SVGID_00000041974514543349221290000009782723140228489405_);">
					<g>
						<g>
							<polygon style="opacity:0.3;fill:#FFFFFF;" points="348.785,600.672 455.353,416.092 561.92,600.672 							"/>
							<polygon style="opacity:0.3;fill:#FFFFFF;" points="497.877,494.52 604.445,309.938 711.012,494.52 							"/>
							<polygon style="opacity:0.3;fill:#FFFFFF;" points="624.902,391.943 731.473,207.361 838.037,391.943 							"/>
							<polygon style="opacity:0.3;fill:#FFFFFF;" points="238.656,634.969 365.381,415.478 492.1,634.969 							"/>
							<polygon style="opacity:0.3;fill:#FFFFFF;" points="574.211,548.1 700.935,328.607 827.654,548.1 							"/>
							<polygon style="opacity:0.3;fill:#FFFFFF;" points="394.109,554.063 520.834,334.572 647.553,554.063 							"/>
						</g>
						<polygon style="opacity:0.3;fill:#FFFFFF;" points="134.689,595.902 241.26,411.318 347.824,595.902 						"/>
					</g>
					<g>
						<polygon style="opacity:0.3;fill:#FFFFFF;" points="317.178,456.029 368.283,367.512 419.389,456.029 						"/>
						<polygon style="opacity:0.3;fill:#FFFFFF;" points="374.629,330.793 425.734,242.273 476.838,330.793 						"/>
						<polygon style="opacity:0.3;fill:#FFFFFF;" points="427.705,250.283 478.81,161.764 529.916,250.283 						"/>
						<polygon style="opacity:0.3;fill:#FFFFFF;" points="595.881,215.693 646.986,127.175 698.09,215.693 						"/>
					</g>
				</g>
				
			</g>
		</g>
	</g>
	</g>
</svg>