
<svg version="1.1" xmlns="http://www.w3.org/2000/svg" xmlns:xlink="http://www.w3.org/1999/xlink" x="0px" y="0px"
	 viewBox="0 0 750 500" style="enable-background:new 0 0 750 500;" xml:space="preserve">
<g id="BACKGROUND_2">
	<g>
		<rect x="-0.084" style="fill:#FFFFFF;" width="750" height="500"/>
		<g>
			<rect x="-0.084" style="fill:#FFFFFF;" width="750.25" height="500"/>
			<g>
				<defs>
					<rect id="SVGID_1_" x="-0.166" width="750.166" height="500"/>
				</defs>
				<clipPath id="SVGID_00000041974514543349221290000009782723140228489405_">
					<use xlink:href="#SVGID_1_"  style="overflow:visible;"/>
				</clipPath>
				<g style="clip-path:url(#SVGID_00000041974514543349221290000009782723140228489405_);">
					<polygon style="fill:#03312E;" points="673.842,219.617 610.898,328.635 547.961,219.617 					"/>
					<polygon style="fill:#153D51;" points="595.967,403.883 718.377,191.865 840.783,403.883 					"/>
					<polygon style="fill:#037171;" points="460.094,518.935 642.465,203.068 824.824,518.935 					"/>
					<polygon style="fill:#153D51;" points="403.432,477.348 526.42,264.33 649.4,477.348 					"/>
					<g>
						<polygon style="fill:#03312E;" points="390.313,350.9 415.494,307.287 440.672,350.9 						"/>
						<polygon style="fill:#153D51;" points="672.193,121.383 690.815,89.132 709.434,121.383 						"/>
						<polygon style="fill:#5d84a99;" points="340.424,428.971 323.65,458.023 306.879,428.971 						"/>
						<polygon style="fill:#00bba7;" points="688.9,160.705 672.127,189.757 655.356,160.705 						"/>
						<polygon style="fill:#03312E;" points="295.299,467.637 278.525,496.69 261.754,467.637 						"/>
						<polygon style="fill:#037171;" points="478.98,296.478 462.207,325.531 445.434,296.478 						"/>
						<polygon style="fill:#037171;" points="340.572,405.492 352.348,385.096 364.121,405.492 						"/>
						<polygon style="fill:#03312E;" points="334.336,367.438 322.826,387.371 311.318,367.438 						"/>
						<polygon style="fill:#23BECC;" points="599.166,195.142 610.676,175.208 622.182,195.142 						"/>
						<polygon style="fill:#EB405B;" points="524.377,217.55 512.869,237.484 501.361,217.55 						"/>
					</g>
					<polygon style="fill:#037171;" points="303.065,562.74 409.426,378.52 515.783,562.74 					"/>
					<polygon style="fill:#23BECC;" points="677.838,234.285 734.994,135.283 792.152,234.285 					"/>
					<polygon style="fill:#03312E;" points="783.984,340.654 661.572,552.674 539.168,340.654 					"/>
					<polygon style="fill:#037171;" points="857.688,399.68 751.326,583.9 644.969,399.68 					"/>
					<polygon style="fill:#23BECC;" points="608.953,409.559 538.414,531.732 467.879,409.559 					"/>
				</g>
				<g style="clip-path:url(#SVGID_00000041974514543349221290000009782723140228489405_);">
					<polygon style="fill:#153D51;" points="61.613,233.456 124.557,124.44 187.494,233.456 					"/>
					<polygon style="fill:#23BECC;" points="139.488,40.246 17.078,252.264 -105.326,40.246 					"/>
					<polygon style="fill:#03312E;" points="275.359,-56.319 92.99,259.549 -89.369,-56.319 					"/>
					<polygon style="fill:#23BECC;" points="319.299,-32.226 196.314,180.792 73.332,-32.226 					"/>
					<g>
						<polygon style="fill:#23BECC;" points="345.143,111.715 319.961,155.329 294.781,111.715 						"/>
						<polygon style="fill:#037171;" points="59.086,327.797 33.906,371.412 8.727,327.797 						"/>
						<polygon style="fill:#153D51;" points="395.029,33.645 411.805,4.593 428.576,33.645 						"/>
						<polygon style="fill:#03312E;" points="46.555,301.908 63.328,272.857 80.1,301.908 						"/>
						<polygon style="fill:#037171;" points="256.475,166.137 273.246,137.085 290.02,166.137 						"/>
						<polygon style="fill:#03312E;" points="388.918,54.44 377.143,74.837 365.369,54.44 						"/>
						<polygon style="fill:#03312E;" points="401.119,95.179 412.629,75.245 424.137,95.179 						"/>
						<polygon style="fill:#23BECC;" points="136.289,267.473 124.779,287.408 113.273,267.473 						"/>
						<polygon style="fill:#153D51;" points="211.078,245.064 222.586,225.13 234.094,245.064 						"/>
					</g>
					<polygon style="fill:#037171;" points="409.33,-96.148 302.971,88.073 196.613,-96.148 					"/>
					<polygon style="fill:#23BECC;" points="62.588,214.415 5.43,313.416 -51.729,214.415 					"/>
					<polygon style="fill:#037171;" points="-48.529,121.961 73.883,-90.058 196.287,121.961 					"/>
					<polygon style="fill:#23BECC;" points="-114.281,77.249 -7.918,-106.972 98.437,77.249 					"/>
					<polygon style="fill:#153D51;" points="226.822,-31.347 156.283,90.828 85.748,-31.347 					"/>
				</g>
				<g style="clip-path:url(#SVGID_00000041974514543349221290000009782723140228489405_);">
					<g>
						<g>
							<polygon style="opacity:0.3;fill:#FFFFFF;" points="348.785,600.672 455.353,416.092 561.92,600.672 							"/>
							<polygon style="opacity:0.3;fill:#FFFFFF;" points="497.877,494.52 604.445,309.938 711.012,494.52 							"/>
							<polygon style="opacity:0.3;fill:#FFFFFF;" points="624.902,391.943 731.473,207.361 838.037,391.943 							"/>
							<polygon style="opacity:0.3;fill:#FFFFFF;" points="238.656,634.969 365.381,415.478 492.1,634.969 							"/>
							<polygon style="opacity:0.3;fill:#FFFFFF;" points="574.211,548.1 700.935,328.607 827.654,548.1 							"/>
							<polygon style="opacity:0.3;fill:#FFFFFF;" points="394.109,554.063 520.834,334.572 647.553,554.063 							"/>
						</g>
						<polygon style="opacity:0.3;fill:#FFFFFF;" points="134.689,595.902 241.26,411.318 347.824,595.902 						"/>
					</g>
					<g>
						<polygon style="opacity:0.3;fill:#FFFFFF;" points="317.178,456.029 368.283,367.512 419.389,456.029 						"/>
						<polygon style="opacity:0.3;fill:#FFFFFF;" points="374.629,330.793 425.734,242.273 476.838,330.793 						"/>
						<polygon style="opacity:0.3;fill:#FFFFFF;" points="427.705,250.283 478.81,161.764 529.916,250.283 						"/>
						<polygon style="opacity:0.3;fill:#FFFFFF;" points="595.881,215.693 646.986,127.175 698.09,215.693 						"/>
					</g>
				</g>
				<g style="clip-path:url(#SVGID_00000041974514543349221290000009782723140228489405_);">
					<g>
						<polygon style="opacity:0.3;fill:#FFFFFF;" points="217.312,-57.975 110.742,126.606 4.18,-57.975 						"/>
						<polygon style="opacity:0.3;fill:#FFFFFF;" points="237.588,38.636 131.018,223.218 24.455,38.636 						"/>
						<polygon style="opacity:0.3;fill:#FFFFFF;" points="77.762,163.873 -28.809,348.455 -135.371,163.873 						"/>
						<polygon style="opacity:0.3;fill:#FFFFFF;" points="347.32,-116.921 220.594,102.57 93.877,-116.921 						"/>
						<polygon style="opacity:0.3;fill:#FFFFFF;" points="125.473,17.858 -1.254,237.349 -127.971,17.858 						"/>
					</g>
					<g>
						<polygon style="opacity:0.3;fill:#FFFFFF;" points="297.435,162.612 348.541,74.093 399.645,162.612 						"/>
						<polygon style="opacity:0.3;fill:#FFFFFF;" points="206.191,227.019 257.297,138.501 308.4,227.019 						"/>
						<polygon style="opacity:0.3;fill:#FFFFFF;" points="48.154,319.457 99.26,230.937 150.363,319.457 						"/>
						<polygon style="opacity:0.3;fill:#FFFFFF;" points="332.607,83.105 383.713,-5.413 434.818,83.105 						"/>
					</g>
				</g>
			</g>
		</g>
	</g>
	<g>
		<polygon style="opacity:0.3;fill:#231F20;" points="548.416,303.029 213.416,290.512 220.699,200.519 538.332,192.304 		"/>
		<rect x="213.416" y="192.304" style="fill:#FFFFFF;" width="324.916" height="98.207"/>
		<g>
			<g>
				
					<text transform="matrix(1 0 0 1 202.9976 246.2222)" style="fill:#284B63; font-family:'Montserrat-Bold'; font-size:20px; letter-spacing:3;">Own your visibility.</text>
			</g>
		</g>
    <g>
			<g>
				
					<text transform="matrix(1 0 0 1 312.9976 276.2222)" style="fill:#284B63; font-family:'Montserrat-Bold'; font-size:20px; letter-spacing:3;">Own your guests.</text>
			</g>
		</g>

	</g>
</g>
<g id="BACKGROUND_1">
	<g>
		<g>
			<defs>
				<rect id="SVGID_00000067233284341123726130000017767923846450403714_" x="-569.014" y="-0.01" width="500" height="500"/>
			</defs>
			<clipPath id="SVGID_00000038405639994100851990000016404063087571398587_">
				<use xlink:href="#SVGID_00000067233284341123726130000017767923846450403714_"  style="overflow:visible;"/>
			</clipPath>
			<g style="clip-path:url(#SVGID_00000038405639994100851990000016404063087571398587_);">
				<polygon style="fill:#153D51;" points="-190.266,411.213 -87.635,233.455 14.991,411.213 				"/>
				<polygon style="fill:#EB405B;" points="-304.183,507.674 -151.281,242.847 1.611,507.674 				"/>
				<polygon style="fill:#EB405B;" points="29.164,407.69 -60.011,562.143 -149.182,407.69 				"/>
			</g>
			<g style="clip-path:url(#SVGID_00000038405639994100851990000016404063087571398587_);">
				<g>
					<g>
						<polygon style="opacity:0.3;fill:#FFFFFF;" points="-166.005,401.203 -76.656,246.447 12.689,401.203 						"/>
						<polygon style="opacity:0.3;fill:#FFFFFF;" points="-208.505,532.125 -102.258,348.102 3.984,532.125 						"/>
					</g>
				</g>
			</g>
		</g>
	</g>
</g>
  </svg>