<?xml version="1.0" encoding="utf-8"?>
<svg version="1.2" xmlns="http://www.w3.org/2000/svg" viewBox="931.273 209.842 515.766 395.55" width="2372" height="1898">
  <style>
		tspan { white-space:pre } 
		.s0 { fill: currentColor } 
		.s1 { fill: currentColor } 
		.t2 { font-size: 90px;fill: currentColor;font-weight: 500;font-family: "GriffosSCapsFont", "GriffosSCapsFont" } 
	</style>
  <g id="Layer 1">
    <g id="&lt;Group&gt;">
      <g id="&lt;Group&gt;-2">
        <g id="&lt;Group&gt; copy 3">
          <g id="&lt;Group&gt;-2">
            <path id="&lt;Path&gt;" class="s0" d="m1318.79 494.14h-1.88-1.88-1.88-1.87-1.88-1.88-1.88-1.87-1.88-1.88-1.88-1.87-1.88-1.88-1.88-1.87v-7.82-7.81-7.82-7.81-7.82-7.82-7.81-7.82-7.82-7.81-7.82-7.81-7.82-7.82-7.81-7.82l-6.43-5.4-6.43-5.4-6.44-5.4-6.43-5.4-6.43-5.4-6.43-5.4-6.43-5.4-6.43-5.41-6.43-5.4-6.43-5.4-6.43-5.4-6.43-5.4-6.43-5.4-6.43-5.4-6.44-5.4-6.43-5.4-6.43 5.4-6.43 5.4-6.43 5.4-6.43 5.4-6.43 5.4-6.43 5.4-6.43 5.4-6.43 5.4-6.43 5.41-6.43 5.4-6.44 5.4-6.43 5.4-6.43 5.4-6.43 5.4-6.43 5.4-6.43 5.4v7.82 7.81 7.82 7.82 7.81 7.82 7.81 7.82 7.82 7.81 7.82 7.82 7.81 7.82 7.81 7.82h-1.88-1.87-1.88-1.88-1.88-1.87-1.88-1.88-1.88-1.87-1.88-1.88-1.88-1.87-1.88-1.88v-8.69-8.69-8.69-8.69-8.7-8.69-8.69-8.69-8.69-8.69-8.69-8.69-8.69-8.7-8.69-8.69l8.31-6.97 8.31-6.98 8.31-6.98 8.3-6.98 8.31-6.97 8.31-6.98 8.31-6.98 8.31-6.98 8.31-6.97 8.3-6.98 8.31-6.98 8.31-6.98 8.31-6.97 8.31-6.98 8.31-6.98 8.3-6.97 8.31 6.97 8.31 6.98 8.31 6.98 8.31 6.97 8.3 6.98 8.31 6.98 8.31 6.98 8.31 6.97 8.31 6.98 8.31 6.98 8.3 6.98 8.31 6.97 8.31 6.98 8.31 6.98 8.31 6.98 8.31 6.97v8.69 8.69 8.7 8.69 8.69 8.69 8.69 8.69 8.69 8.69 8.69 8.7 8.69 8.69 8.69z"/>
          </g>
          <g id="&lt;Group&gt;-2">
            <path id="&lt;Path&gt;-2" class="s0" d="m1259.17 467h-2.03-2.03-2.04-2.03-2.03-2.03-2.04-2.03-2.03-2.03-2.04-2.03-2.03-2.03-2.04-2.03v-3.63-3.62-3.63-3.62-3.63-3.62-3.63-3.63-3.62-3.63-3.62-3.63-3.62-3.63-3.62-3.63l-2.49-2.1-2.5-2.09-2.49-2.1-2.5-2.09-2.49-2.1-2.5-2.09-2.49-2.1-2.5-2.1-2.49-2.09-2.5-2.1-2.49-2.09-2.5-2.1-2.49-2.09-2.5-2.1-2.49-2.09-2.5-2.1-2.49 2.1-2.5 2.09-2.49 2.1-2.5 2.09-2.49 2.1-2.5 2.09-2.49 2.1-2.5 2.09-2.49 2.1-2.5 2.1-2.49 2.09-2.5 2.1-2.49 2.09-2.5 2.1-2.49 2.09-2.5 2.1v3.63 3.62 3.63 3.62 3.63 3.62 3.63 3.62 3.63 3.63 3.62 3.63 3.62 3.63 3.62 3.63h-2.03-2.03-2.04-2.03-2.03-2.03-2.04-2.03-2.03-2.03-2.04-2.03-2.03-2.03-2.03-2.04v-4.57-4.58-4.57-4.57-4.57-4.58-4.57-4.57-4.58-4.57-4.57-4.57-4.58-4.57-4.57-4.57l4.53-3.81 4.53-3.8 4.53-3.8 4.52-3.8 4.53-3.81 4.53-3.8 4.53-3.8 4.52-3.8 4.53-3.8 4.53-3.81 4.52-3.8 4.53-3.8 4.53-3.8 4.53-3.81 4.52-3.8 4.53-3.8 4.53 3.8 4.53 3.8 4.52 3.81 4.53 3.8 4.53 3.8 4.53 3.8 4.52 3.81 4.53 3.8 4.53 3.8 4.53 3.8 4.52 3.8 4.53 3.81 4.53 3.8 4.53 3.8 4.52 3.8 4.53 3.81v4.57 4.57 4.57 4.58 4.57 4.57 4.57 4.58 4.57 4.57 4.58 4.57 4.57 4.57 4.58z"/>
          </g>
          <path id="&lt;Path&gt;-2" class="s0" d="m939.78 517.45q3.54-1.81 7.12-3.54 3.57-1.73 7.18-3.39 3.6-1.65 7.24-3.24 3.64-1.59 7.3-3.11 3.67-1.52 7.36-2.98 3.69-1.45 7.41-2.84 3.71-1.39 7.45-2.72 3.74-1.34 7.5-2.61 3.77-1.27 7.55-2.49 3.78-1.21 7.58-2.38 3.8-1.16 7.61-2.27 3.82-1.12 7.65-2.18 3.83-1.06 7.67-2.08 3.85-1.01 7.7-1.99 3.86-0.97 7.72-1.9 3.87-0.93 7.74-1.82 3.88-0.87 7.77-1.69 3.89-0.82 7.8-1.6 3.9-0.78 7.82-1.51 3.91-0.73 7.83-1.42 3.93-0.68 7.86-1.32 3.93-0.64 7.88-1.23 3.94-0.6 7.89-1.14 3.95-0.54 7.9-1.04 3.96-0.5 7.93-0.94 3.96-0.45 7.93-0.84 3.97-0.4 7.95-0.75 3.97-0.34 7.96-0.64 3.98-0.29 7.97-0.53 3.98-0.24 7.97-0.43 4-0.19 7.99-0.33 4-0.13 7.99-0.21 1-0.03 2-0.06 1-0.02 2-0.04 1-0.01 2-0.02 1-0.02 2-0.02 1-0.01 2-0.01 1 0 2 0 1 0 2 0 1 0.01 2 0.02 1 0 2 0.01 1 0.01 2 0.02 1 0.02 2 0.03 1 0.01 2 0.03 1 0.01 2 0.02 1 0.02 2 0.03 1 0.01 2 0.03 1 0.01 2 0.02 1 0.06 2 0.11 1 0.05 2 0.1 1 0.05 2 0.09 1 0.05 2 0.1 1 0.05 1.99 0.1 1 0.04 2 0.09 1 0.05 2 0.1 1 0.05 2 0.11 1 0.05 2 0.11 1 0.06 2 0.12 1 0.06 1.99 0.13 1 0.06 2 0.14 1 0.07 2 0.15 1 0.07 1.99 0.16 1 0.09 2 0.18 1 0.09 1.99 0.19 2 0.18 3.99 0.36 1.99 0.19 3.99 0.39 1.99 0.2 3.98 0.42 1.99 0.22 3.98 0.45 1.99 0.23 3.97 0.48 1.99 0.25 3.98 0.51 1.98 0.26 3.97 0.54 1.98 0.28 3.96 0.58 1.98 0.3 3.96 0.61 1.98 0.31 3.95 0.64 1.98 0.33 3.95 0.68 1.98 0.34 3.95 0.7 1.96 0.37 3.93 0.75 1.97 0.38 3.93 0.78 1.96 0.4 3.92 0.81 1.96 0.42 3.92 0.86 3.91 0.83 7.81 1.74 3.89 0.91 7.77 1.89 3.89 0.98 7.75 2.03 3.86 1.05 7.7 2.17 3.84 1.12 7.66 2.31 3.82 1.2 7.61 2.47 3.79 1.26 7.55 2.61 3.77 1.34 7.5 2.75 3.73 1.42 7.43 2.91 3.7 1.5 7.37 3.06 3.66 1.57 7.29 3.22 3.63 1.64 7.21 3.36 3.59 1.73 7.13 3.53 3.55 1.8 7.05 3.68 3.5 1.87 6.95 3.83 3.45 1.96 6.85 4-3.85-0.95-7.69-1.88-3.84-0.92-7.68-1.82-3.84-0.89-7.67-1.76-3.83-0.87-7.66-1.71-3.82-0.84-7.65-1.65-3.82-0.81-7.64-1.58-3.82-0.78-7.64-1.52-3.82-0.74-7.64-1.45-3.81-0.71-7.63-1.38-3.82-0.67-7.64-1.31-3.81-0.63-7.63-1.23-3.82-0.6-7.64-1.16-3.82-0.56-7.64-1.07-3.83-0.52-7.65-1-3.83-0.48-7.66-0.91-3.84-0.43-7.67-0.82-0.96-0.13-1.91-0.24-0.96-0.11-1.91-0.22-0.96-0.1-1.92-0.2-0.95-0.1-1.91-0.19-0.96-0.1-1.92-0.18-0.95-0.09-1.91-0.18-0.96-0.08-1.92-0.16-0.96-0.08-1.92-0.16-0.96-0.08-1.92-0.16-0.95-0.08-1.91-0.16-0.96-0.07-1.92-0.15-0.96-0.08-1.92-0.16-0.95-0.08-1.91-0.16-0.96-0.08-1.92-0.17-0.95-0.08-1.91-0.17-0.95-0.09-1.91-0.18-0.96-0.04-1.92-0.09-0.96-0.05-1.92-0.1-0.96-0.06-1.92-0.11-0.96-0.06-1.92-0.12-0.96-0.06-1.92-0.12-0.96-0.06-1.92-0.12-0.96-0.06-1.91-0.12-0.96-0.06-1.92-0.12-0.96-0.06-1.92-0.12-0.96-0.06-1.91-0.11-0.96-0.06-1.92-0.11-0.96-0.05-1.92-0.09-0.96-0.05-1.92-0.09-0.96-0.04-1.92-0.07-0.96-0.04-1.92-0.06-0.96-0.03-1.92-0.05-1.92-0.08-3.84-0.15-1.92-0.07-3.84-0.13-1.92-0.07-3.84-0.12-1.92-0.06-3.84-0.11-1.92-0.04-3.84-0.08-1.92-0.04-3.84-0.07-1.92-0.03-3.84-0.05-1.93-0.03-3.85-0.04-1.92-0.01-3.84-0.02-1.92-0.01-3.84 0-1.93 0-3.85 0.01-1.92 0.01-3.84 0.03-1.92 0.02-3.85 0.04-1.92 0.03-3.84 0.06-1.92 0.04-3.85 0.08-1.92 0.04-3.84 0.09-3.85 0.08-7.69 0.18-3.85 0.11-7.7 0.24-3.84 0.13-7.69 0.29-3.84 0.16-7.69 0.34-3.85 0.19-7.7 0.4-3.84 0.21-7.69 0.45-3.85 0.24-7.7 0.5-3.84 0.26-7.69 0.54-3.85 0.28-7.7 0.59-3.85 0.31-7.7 0.63-3.85 0.33-7.7 0.68-3.84 0.35-7.69 0.72-3.85 0.37-7.7 0.76-3.85 0.38-7.71 0.79-3.85 0.41-7.7 0.83-3.85 0.43-7.7 0.87-3.85 0.44-7.71 0.91-3.85 0.46-7.7 0.94-3.86 0.48-7.71 0.98-3.85 0.5-7.71 1.01-3.85 0.51-7.71 1.04-3.86 0.53-7.72 1.07-3.85 0.54-7.71 1.1-3.86 0.56-7.73 1.13-3.86 0.58-7.72 1.17-3.87 0.59-7.74 1.19-3.87 0.61-7.74 1.23-3.87 0.62-7.75 1.25-3.87 0.64-7.75 1.29-3.89 0.65-7.77 1.31-3.89 0.67-7.78 1.35-3.89 0.67-7.79 1.37z"/>
          <path id="&lt;Path&gt; copy" class="s1" d="m1318.79 494.14h-1.88-1.88-1.88-1.87-1.88-1.88-1.88-1.87-1.88-1.88-1.88-1.87-1.88-1.88-1.88-1.87v-7.82-7.81-7.82-7.81-7.82-7.82-7.81-7.82-7.82-7.81-7.82-7.81-7.82-7.82-7.81-7.82l-6.43-5.4-6.43-5.4-6.44-5.4-6.43-5.4-6.43-5.4-6.43-5.4-6.43-5.4-6.43-5.41-6.43-5.4-6.43-5.4-6.43-5.4-6.43-5.4-6.43-5.4-6.43-5.4-6.44-5.4-6.43-5.4-6.43 5.4-6.43 5.4-6.43 5.4-6.43 5.4-6.43 5.4-6.43 5.4-6.43 5.4-6.43 5.4-6.43 5.41-6.43 5.4-6.44 5.4-6.43 5.4-6.43 5.4-6.43 5.4-6.43 5.4-6.43 5.4v7.82 7.81 7.82 7.82 7.81 7.82 7.81 7.82 7.82 7.81 7.82 7.82 7.81 7.82 7.81 7.82h-1.88-1.87-1.88-1.88-1.88-1.87-1.88-1.88-1.88-1.87-1.88-1.88-1.88-1.87-1.88-1.88v-8.69-8.69-8.69-8.69-8.7-8.69-8.69-8.69-8.69-8.69-8.69-8.69-8.69-8.7-8.69-8.69l8.31-6.97 8.31-6.98 8.31-6.98 8.3-6.98 8.31-6.97 8.31-6.98 8.31-6.98 8.31-6.98 8.31-6.97 8.3-6.98 8.31-6.98 8.31-6.98 8.31-6.97 8.31-6.98 8.31-6.98 8.3-6.97 8.31 6.97 8.31 6.98 8.31 6.98 8.31 6.97 8.3 6.98 8.31 6.98 8.31 6.98 8.31 6.97 8.31 6.98 8.31 6.98 8.3 6.98 8.31 6.97 8.31 6.98 8.31 6.98 8.31 6.98 8.31 6.97v8.69 8.69 8.7 8.69 8.69 8.69 8.69 8.69 8.69 8.69 8.69 8.7 8.69 8.69 8.69z"/>
          <path id="&lt;Path&gt; copy 2" class="s1" d="m1259.17 467h-2.03-2.03-2.04-2.03-2.03-2.03-2.04-2.03-2.03-2.03-2.04-2.03-2.03-2.03-2.04-2.03v-3.63-3.62-3.63-3.62-3.63-3.62-3.63-3.63-3.62-3.63-3.62-3.63-3.62-3.63-3.62-3.63l-2.49-2.1-2.5-2.09-2.49-2.1-2.5-2.09-2.49-2.1-2.5-2.09-2.49-2.1-2.5-2.1-2.49-2.09-2.5-2.1-2.49-2.09-2.5-2.1-2.49-2.09-2.5-2.1-2.49-2.09-2.5-2.1-2.49 2.1-2.5 2.09-2.49 2.1-2.5 2.09-2.49 2.1-2.5 2.09-2.49 2.1-2.5 2.09-2.49 2.1-2.5 2.1-2.49 2.09-2.5 2.1-2.49 2.09-2.5 2.1-2.49 2.09-2.5 2.1v3.63 3.62 3.63 3.62 3.63 3.62 3.63 3.62 3.63 3.63 3.62 3.63 3.62 3.63 3.62 3.63h-2.03-2.03-2.04-2.03-2.03-2.03-2.04-2.03-2.03-2.03-2.04-2.03-2.03-2.03-2.03-2.04v-4.57-4.58-4.57-4.57-4.57-4.58-4.57-4.57-4.58-4.57-4.57-4.57-4.58-4.57-4.57-4.57l4.53-3.81 4.53-3.8 4.53-3.8 4.52-3.8 4.53-3.81 4.53-3.8 4.53-3.8 4.52-3.8 4.53-3.8 4.53-3.81 4.52-3.8 4.53-3.8 4.53-3.8 4.53-3.81 4.52-3.8 4.53-3.8 4.53 3.8 4.53 3.8 4.52 3.81 4.53 3.8 4.53 3.8 4.53 3.8 4.52 3.81 4.53 3.8 4.53 3.8 4.53 3.8 4.52 3.8 4.53 3.81 4.53 3.8 4.53 3.8 4.52 3.8 4.53 3.81v4.57 4.57 4.57 4.58 4.57 4.57 4.57 4.58 4.57 4.57 4.58 4.57 4.57 4.57 4.58z"/>
          <path id="&lt;Path&gt; copy 3" class="s1" d="m939.78 517.45q3.54-1.81 7.12-3.54 3.57-1.73 7.18-3.39 3.6-1.65 7.24-3.24 3.64-1.59 7.3-3.11 3.67-1.52 7.36-2.98 3.69-1.45 7.41-2.84 3.71-1.39 7.45-2.72 3.74-1.34 7.5-2.61 3.77-1.27 7.55-2.49 3.78-1.21 7.58-2.38 3.8-1.16 7.61-2.27 3.82-1.12 7.65-2.18 3.83-1.06 7.67-2.08 3.85-1.01 7.7-1.99 3.86-0.97 7.72-1.9 3.87-0.93 7.74-1.82 3.88-0.87 7.77-1.69 3.89-0.82 7.8-1.6 3.9-0.78 7.82-1.51 3.91-0.73 7.83-1.42 3.93-0.68 7.86-1.32 3.93-0.64 7.88-1.23 3.94-0.6 7.89-1.14 3.95-0.54 7.9-1.04 3.96-0.5 7.93-0.94 3.96-0.45 7.93-0.84 3.97-0.4 7.95-0.75 3.97-0.34 7.96-0.64 3.98-0.29 7.97-0.53 3.98-0.24 7.97-0.43 4-0.19 7.99-0.33 4-0.13 7.99-0.21 1-0.03 2-0.06 1-0.02 2-0.04 1-0.01 2-0.02 1-0.02 2-0.02 1-0.01 2-0.01 1 0 2 0 1 0 2 0 1 0.01 2 0.02 1 0 2 0.01 1 0.01 2 0.02 1 0.02 2 0.03 1 0.01 2 0.03 1 0.01 2 0.02 1 0.02 2 0.03 1 0.01 2 0.03 1 0.01 2 0.02 1 0.06 2 0.11 1 0.05 2 0.1 1 0.05 2 0.09 1 0.05 2 0.1 1 0.05 1.99 0.1 1 0.04 2 0.09 1 0.05 2 0.1 1 0.05 2 0.11 1 0.05 2 0.11 1 0.06 2 0.12 1 0.06 1.99 0.13 1 0.06 2 0.14 1 0.07 2 0.15 1 0.07 1.99 0.16 1 0.09 2 0.18 1 0.09 1.99 0.19 2 0.18 3.99 0.36 1.99 0.19 3.99 0.39 1.99 0.2 3.98 0.42 1.99 0.22 3.98 0.45 1.99 0.23 3.97 0.48 1.99 0.25 3.98 0.51 1.98 0.26 3.97 0.54 1.98 0.28 3.96 0.58 1.98 0.3 3.96 0.61 1.98 0.31 3.95 0.64 1.98 0.33 3.95 0.68 1.98 0.34 3.95 0.7 1.96 0.37 3.93 0.75 1.97 0.38 3.93 0.78 1.96 0.4 3.92 0.81 1.96 0.42 3.92 0.86 3.91 0.83 7.81 1.74 3.89 0.91 7.77 1.89 3.89 0.98 7.75 2.03 3.86 1.05 7.7 2.17 3.84 1.12 7.66 2.31 3.82 1.2 7.61 2.47 3.79 1.26 7.55 2.61 3.77 1.34 7.5 2.75 3.73 1.42 7.43 2.91 3.7 1.5 7.37 3.06 3.66 1.57 7.29 3.22 3.63 1.64 7.21 3.36 3.59 1.73 7.13 3.53 3.55 1.8 7.05 3.68 3.5 1.87 6.95 3.83 3.45 1.96 6.85 4-3.85-0.95-7.69-1.88-3.84-0.92-7.68-1.82-3.84-0.89-7.67-1.76-3.83-0.87-7.66-1.71-3.82-0.84-7.65-1.65-3.82-0.81-7.64-1.58-3.82-0.78-7.64-1.52-3.82-0.74-7.64-1.45-3.81-0.71-7.63-1.38-3.82-0.67-7.64-1.31-3.81-0.63-7.63-1.23-3.82-0.6-7.64-1.16-3.82-0.56-7.64-1.07-3.83-0.52-7.65-1-3.83-0.48-7.66-0.91-3.84-0.43-7.67-0.82-0.96-0.13-1.91-0.24-0.96-0.11-1.91-0.22-0.96-0.1-1.92-0.2-0.95-0.1-1.91-0.19-0.96-0.1-1.92-0.18-0.95-0.09-1.91-0.18-0.96-0.08-1.92-0.16-0.96-0.08-1.92-0.16-0.96-0.08-1.92-0.16-0.95-0.08-1.91-0.16-0.96-0.07-1.92-0.15-0.96-0.08-1.92-0.16-0.95-0.08-1.91-0.16-0.96-0.08-1.92-0.17-0.95-0.08-1.91-0.17-0.95-0.09-1.91-0.18-0.96-0.04-1.92-0.09-0.96-0.05-1.92-0.1-0.96-0.06-1.92-0.11-0.96-0.06-1.92-0.12-0.96-0.06-1.92-0.12-0.96-0.06-1.92-0.12-0.96-0.06-1.91-0.12-0.96-0.06-1.92-0.12-0.96-0.06-1.92-0.12-0.96-0.06-1.91-0.11-0.96-0.06-1.92-0.11-0.96-0.05-1.92-0.09-0.96-0.05-1.92-0.09-0.96-0.04-1.92-0.07-0.96-0.04-1.92-0.06-0.96-0.03-1.92-0.05-1.92-0.08-3.84-0.15-1.92-0.07-3.84-0.13-1.92-0.07-3.84-0.12-1.92-0.06-3.84-0.11-1.92-0.04-3.84-0.08-1.92-0.04-3.84-0.07-1.92-0.03-3.84-0.05-1.93-0.03-3.85-0.04-1.92-0.01-3.84-0.02-1.92-0.01-3.84 0-1.93 0-3.85 0.01-1.92 0.01-3.84 0.03-1.92 0.02-3.85 0.04-1.92 0.03-3.84 0.06-1.92 0.04-3.85 0.08-1.92 0.04-3.84 0.09-3.85 0.08-7.69 0.18-3.85 0.11-7.7 0.24-3.84 0.13-7.69 0.29-3.84 0.16-7.69 0.34-3.85 0.19-7.7 0.4-3.84 0.21-7.69 0.45-3.85 0.24-7.7 0.5-3.84 0.26-7.69 0.54-3.85 0.28-7.7 0.59-3.85 0.31-7.7 0.63-3.85 0.33-7.7 0.68-3.84 0.35-7.69 0.72-3.85 0.37-7.7 0.76-3.85 0.38-7.71 0.79-3.85 0.41-7.7 0.83-3.85 0.43-7.7 0.87-3.85 0.44-7.71 0.91-3.85 0.46-7.7 0.94-3.86 0.48-7.71 0.98-3.85 0.5-7.71 1.01-3.85 0.51-7.71 1.04-3.86 0.53-7.72 1.07-3.85 0.54-7.71 1.1-3.86 0.56-7.73 1.13-3.86 0.58-7.72 1.17-3.87 0.59-7.74 1.19-3.87 0.61-7.74 1.23-3.87 0.62-7.75 1.25-3.87 0.64-7.75 1.29-3.89 0.65-7.77 1.31-3.89 0.67-7.78 1.35-3.89 0.67-7.79 1.37z"/>
        </g>
      </g>
      <g id="&lt;Group&gt;-2">
        <g id="&lt;Group&gt;-2">
        
							<tspan x="0" y="0" class="t2">S</tspan><tspan y="0" class="t2">a</tspan><tspan y="0" class="t2">n</tspan><tspan y="0" class="t2">c</tspan><tspan y="0" class="t2">t</tspan><tspan y="0" class="t2">u</tspan><tspan y="0" class="t2">m
</tspan>
          <text id="" transform="translate(1547,183)" style="white-space: pre;">
			</t></text>
        </g>
        <g id="&lt;Group&gt;-2">
          <g id="&lt;Group&gt;-2"/>
          <g id="&lt;Group&gt;-2"/>
        </g>
        <g id="&lt;Group&gt;-2"/>
      </g>
    </g>
  </g>
</svg>